<mxfile host="65bd71144e">
    <diagram id="gBV7wg6uIfevKBL6Zcy1" name="Page-1">
        <mxGraphModel dx="1280" dy="1920" grid="1" gridSize="10" guides="1" tooltips="1" connect="1" arrows="1" fold="1" page="1" pageScale="1" pageWidth="850" pageHeight="1100" math="0" shadow="0">
            <root>
                <mxCell id="0"/>
                <mxCell id="1" parent="0"/>
                <mxCell id="2" value="&lt;div style=&quot;color: #cccccc;background-color: #1f1f1f;font-family: Consolas, &#39;Courier New&#39;, monospace;font-weight: normal;font-size: 14px;line-height: 19px;white-space: pre;&quot;&gt;&lt;div&gt;&lt;span style=&quot;color: #6a9955;&quot;&gt;// 18. Una inmobiliaria barrial de alcance nacional, decide informatizarse e incluir como herramienta&lt;/span&gt;&lt;/div&gt;&lt;div&gt;&lt;span style=&quot;color: #6a9955;&quot;&gt;// para el trabajo diario, un sistema que le permita la gestión de los inmuebles que administra.&lt;/span&gt;&lt;/div&gt;&lt;div&gt;&lt;span style=&quot;color: #6a9955;&quot;&gt;// Sabiendo que la solución será compleja, piensa que es oportuno iniciar por las partes del sistema&lt;/span&gt;&lt;/div&gt;&lt;div&gt;&lt;span style=&quot;color: #6a9955;&quot;&gt;// que le permitan dar de alta los inmuebles.&lt;/span&gt;&lt;/div&gt;&lt;br&gt;&lt;div&gt;&lt;span style=&quot;color: #6a9955;&quot;&gt;// Se trate de un departamento o de una casa, es indispensable contar con los datos catastrales&lt;/span&gt;&lt;/div&gt;&lt;div&gt;&lt;span style=&quot;color: #6a9955;&quot;&gt;// (provincia, barrio, nombre de la calle, altura y código postal), información sobre los ambientes&lt;/span&gt;&lt;/div&gt;&lt;div&gt;&lt;span style=&quot;color: #6a9955;&quot;&gt;// (cantidad, tipo y dimensiones), conocer sobre el contacto (nombre, apellido, teléfono y correo&lt;/span&gt;&lt;/div&gt;&lt;div&gt;&lt;span style=&quot;color: #6a9955;&quot;&gt;// electrónico), y poder incluir alguna observación.&lt;/span&gt;&lt;/div&gt;&lt;br&gt;&lt;div&gt;&lt;span style=&quot;color: #6a9955;&quot;&gt;// Otros aspectos comunes por los que los clientes preguntan giran en torno a si los inmuebles&lt;/span&gt;&lt;/div&gt;&lt;div&gt;&lt;span style=&quot;color: #6a9955;&quot;&gt;// pertenecen a un barrio privado o no, si los ambientes son luminosos, si está conectado al&lt;/span&gt;&lt;/div&gt;&lt;div&gt;&lt;span style=&quot;color: #6a9955;&quot;&gt;// suministro de gas, y si están emplazados en lugares con infraestructura cloacal.&lt;/span&gt;&lt;/div&gt;&lt;div&gt;&lt;span style=&quot;color: #6a9955;&quot;&gt;// En el caso de los departamentos, también es de interés saber el piso y el número o letra, además&lt;/span&gt;&lt;/div&gt;&lt;div&gt;&lt;span style=&quot;color: #6a9955;&quot;&gt;// de conocer si el edificio admite mascota o no; por las casas, en cambio, la inquietud suele girar&lt;/span&gt;&lt;/div&gt;&lt;div&gt;&lt;span style=&quot;color: #6a9955;&quot;&gt;// en torno a si tienen quincho o pileta.&lt;/span&gt;&lt;/div&gt;&lt;br&gt;&lt;div&gt;&lt;span style=&quot;color: #6a9955;&quot;&gt;// Las condiciones para poder dar de alta un inmueble en el sistema es que todos los campos estén&lt;/span&gt;&lt;/div&gt;&lt;div&gt;&lt;span style=&quot;color: #6a9955;&quot;&gt;// completos (salvo las observaciones, que son opcionales); en el caso del contacto, además del&lt;/span&gt;&lt;/div&gt;&lt;div&gt;&lt;span style=&quot;color: #6a9955;&quot;&gt;// nombre completo, debe haberse ingresado alguno de los dos medios de contacto.&lt;/span&gt;&lt;/div&gt;&lt;div&gt;&lt;span style=&quot;color: #6a9955;&quot;&gt;// Los objetos deben ser persistidos en memoria, pudiendo emplear cualquier colección que&lt;/span&gt;&lt;/div&gt;&lt;div&gt;&lt;span style=&quot;color: #6a9955;&quot;&gt;// resulte de conveniencia.&lt;/span&gt;&lt;/div&gt;&lt;br&gt;&lt;div&gt;&lt;span style=&quot;color: #6a9955;&quot;&gt;// Se solicita pensar la estrategia, realizar el diagrama y codificar la solución, pensando en una&lt;/span&gt;&lt;/div&gt;&lt;div&gt;&lt;span style=&quot;color: #6a9955;&quot;&gt;// estrategia por capas.&lt;/span&gt;&lt;/div&gt;&lt;div&gt;&lt;span style=&quot;color: #6a9955;&quot;&gt;// Desde el main, crear inmuebles con varias características diferentes, almacenarlas en memoria, y&lt;/span&gt;&lt;/div&gt;&lt;div&gt;&lt;span style=&quot;color: #6a9955;&quot;&gt;// luego recuperarlas para mostrar por pantalla las cualidades.&lt;/span&gt;&lt;/div&gt;&lt;br&gt;&lt;/div&gt;" style="text;whiteSpace=wrap;html=1;" vertex="1" parent="1">
                    <mxGeometry x="80" y="-540" width="560" height="560" as="geometry"/>
                </mxCell>
                <mxCell id="43" style="edgeStyle=none;html=1;exitX=0;exitY=1;exitDx=0;exitDy=0;entryX=0.5;entryY=0;entryDx=0;entryDy=0;" edge="1" parent="1" source="7" target="31">
                    <mxGeometry relative="1" as="geometry"/>
                </mxCell>
                <mxCell id="44" style="edgeStyle=none;html=1;exitX=1;exitY=1;exitDx=0;exitDy=0;entryX=0.5;entryY=0;entryDx=0;entryDy=0;" edge="1" parent="1" source="7" target="37">
                    <mxGeometry relative="1" as="geometry"/>
                </mxCell>
                <mxCell id="7" value="class Inmueble" style="swimlane;whiteSpace=wrap;html=1;" vertex="1" parent="1">
                    <mxGeometry x="700" y="40" width="235" height="570" as="geometry"/>
                </mxCell>
                <mxCell id="8" value="private provincia: string;" style="text;html=1;align=center;verticalAlign=middle;resizable=0;points=[];autosize=1;strokeColor=none;fillColor=none;" vertex="1" parent="7">
                    <mxGeometry y="30" width="150" height="30" as="geometry"/>
                </mxCell>
                <mxCell id="9" value="private ciudad: string;" style="text;html=1;align=center;verticalAlign=middle;resizable=0;points=[];autosize=1;strokeColor=none;fillColor=none;" vertex="1" parent="7">
                    <mxGeometry y="60" width="140" height="30" as="geometry"/>
                </mxCell>
                <mxCell id="10" value="private barrio: string;" style="text;html=1;align=center;verticalAlign=middle;resizable=0;points=[];autosize=1;strokeColor=none;fillColor=none;" vertex="1" parent="7">
                    <mxGeometry x="5" y="90" width="130" height="30" as="geometry"/>
                </mxCell>
                <mxCell id="11" value="private nombreCalle: string;" style="text;html=1;align=center;verticalAlign=middle;resizable=0;points=[];autosize=1;strokeColor=none;fillColor=none;" vertex="1" parent="7">
                    <mxGeometry y="120" width="170" height="30" as="geometry"/>
                </mxCell>
                <mxCell id="12" value="private altura: int;" style="text;html=1;align=center;verticalAlign=middle;resizable=0;points=[];autosize=1;strokeColor=none;fillColor=none;" vertex="1" parent="7">
                    <mxGeometry y="150" width="120" height="30" as="geometry"/>
                </mxCell>
                <mxCell id="14" value="codigoPostal: int;" style="text;html=1;align=center;verticalAlign=middle;resizable=0;points=[];autosize=1;strokeColor=none;fillColor=none;" vertex="1" parent="7">
                    <mxGeometry x="5" y="180" width="110" height="30" as="geometry"/>
                </mxCell>
                <mxCell id="26" value="private perteneceBarrioPrivado: boolean;" style="text;html=1;align=center;verticalAlign=middle;resizable=0;points=[];autosize=1;strokeColor=none;fillColor=none;" vertex="1" parent="7">
                    <mxGeometry x="-5" y="210" width="240" height="30" as="geometry"/>
                </mxCell>
                <mxCell id="29" value="private conexionSuministroGas: boolean;" style="text;html=1;align=center;verticalAlign=middle;resizable=0;points=[];autosize=1;strokeColor=none;fillColor=none;" vertex="1" parent="7">
                    <mxGeometry x="-5" y="240" width="240" height="30" as="geometry"/>
                </mxCell>
                <mxCell id="30" value="private infraestructuraCloacal: boolean;" style="text;html=1;align=center;verticalAlign=middle;resizable=0;points=[];autosize=1;strokeColor=none;fillColor=none;" vertex="1" parent="7">
                    <mxGeometry x="-5" y="270" width="230" height="30" as="geometry"/>
                </mxCell>
                <mxCell id="68" value="private camposCompletos: boolean;" style="text;html=1;align=center;verticalAlign=middle;resizable=0;points=[];autosize=1;strokeColor=none;fillColor=none;" vertex="1" parent="7">
                    <mxGeometry y="300" width="210" height="30" as="geometry"/>
                </mxCell>
                <mxCell id="35" value="" style="endArrow=none;html=1;entryX=1;entryY=0.75;entryDx=0;entryDy=0;exitX=0;exitY=0.75;exitDx=0;exitDy=0;" edge="1" parent="7">
                    <mxGeometry width="50" height="50" relative="1" as="geometry">
                        <mxPoint y="329.99999999999955" as="sourcePoint"/>
                        <mxPoint x="235.00000000000023" y="330" as="targetPoint"/>
                    </mxGeometry>
                </mxCell>
                <mxCell id="70" value="getProvincia()" style="text;html=1;align=center;verticalAlign=middle;resizable=0;points=[];autosize=1;strokeColor=none;fillColor=none;" vertex="1" parent="7">
                    <mxGeometry x="-5" y="340" width="100" height="30" as="geometry"/>
                </mxCell>
                <mxCell id="71" value="getCiudad()" style="text;html=1;align=center;verticalAlign=middle;resizable=0;points=[];autosize=1;strokeColor=none;fillColor=none;" vertex="1" parent="7">
                    <mxGeometry x="-5" y="360" width="90" height="30" as="geometry"/>
                </mxCell>
                <mxCell id="72" value="getBarrio()" style="text;html=1;align=center;verticalAlign=middle;resizable=0;points=[];autosize=1;strokeColor=none;fillColor=none;" vertex="1" parent="7">
                    <mxGeometry x="-5" y="380" width="80" height="30" as="geometry"/>
                </mxCell>
                <mxCell id="73" value="getNombreCalle()" style="text;html=1;align=center;verticalAlign=middle;resizable=0;points=[];autosize=1;strokeColor=none;fillColor=none;" vertex="1" parent="7">
                    <mxGeometry x="-5" y="400" width="120" height="30" as="geometry"/>
                </mxCell>
                <mxCell id="74" value="getAltura()" style="text;html=1;align=center;verticalAlign=middle;resizable=0;points=[];autosize=1;strokeColor=none;fillColor=none;" vertex="1" parent="7">
                    <mxGeometry x="-5" y="420" width="80" height="30" as="geometry"/>
                </mxCell>
                <mxCell id="75" value="getCodigoPostal()" style="text;html=1;align=center;verticalAlign=middle;resizable=0;points=[];autosize=1;strokeColor=none;fillColor=none;" vertex="1" parent="7">
                    <mxGeometry x="-10" y="440" width="120" height="30" as="geometry"/>
                </mxCell>
                <mxCell id="76" value="get barrioPrivado()" style="text;html=1;align=center;verticalAlign=middle;resizable=0;points=[];autosize=1;strokeColor=none;fillColor=none;" vertex="1" parent="7">
                    <mxGeometry x="-5" y="460" width="120" height="30" as="geometry"/>
                </mxCell>
                <mxCell id="77" value="get conexionSumGas()" style="text;html=1;align=center;verticalAlign=middle;resizable=0;points=[];autosize=1;strokeColor=none;fillColor=none;" vertex="1" parent="7">
                    <mxGeometry x="-10" y="480" width="150" height="30" as="geometry"/>
                </mxCell>
                <mxCell id="78" value="get infraCloacal()" style="text;html=1;align=center;verticalAlign=middle;resizable=0;points=[];autosize=1;strokeColor=none;fillColor=none;" vertex="1" parent="7">
                    <mxGeometry x="-5" y="500" width="110" height="30" as="geometry"/>
                </mxCell>
                <mxCell id="69" value="public completarDatos()" style="text;html=1;align=center;verticalAlign=middle;resizable=0;points=[];autosize=1;strokeColor=none;fillColor=none;" vertex="1" parent="7">
                    <mxGeometry x="-5" y="520" width="150" height="30" as="geometry"/>
                </mxCell>
                <mxCell id="15" value="class Contacto" style="swimlane;whiteSpace=wrap;html=1;" vertex="1" parent="1">
                    <mxGeometry x="350" y="60" width="205" height="390" as="geometry"/>
                </mxCell>
                <mxCell id="16" value="private nombre: string;" style="text;html=1;align=center;verticalAlign=middle;resizable=0;points=[];autosize=1;strokeColor=none;fillColor=none;" vertex="1" parent="15">
                    <mxGeometry x="10" y="20" width="140" height="30" as="geometry"/>
                </mxCell>
                <mxCell id="17" value="private apellido: string;" style="text;html=1;align=center;verticalAlign=middle;resizable=0;points=[];autosize=1;strokeColor=none;fillColor=none;" vertex="1" parent="15">
                    <mxGeometry x="10" y="40" width="140" height="30" as="geometry"/>
                </mxCell>
                <mxCell id="18" value="private telefono: int;" style="text;html=1;align=center;verticalAlign=middle;resizable=0;points=[];autosize=1;strokeColor=none;fillColor=none;" vertex="1" parent="15">
                    <mxGeometry x="10" y="60" width="130" height="30" as="geometry"/>
                </mxCell>
                <mxCell id="19" value="private correo: string;" style="text;html=1;align=center;verticalAlign=middle;resizable=0;points=[];autosize=1;strokeColor=none;fillColor=none;" vertex="1" parent="15">
                    <mxGeometry x="5" y="90" width="140" height="30" as="geometry"/>
                </mxCell>
                <mxCell id="51" value="public getNombre()" style="text;html=1;align=center;verticalAlign=middle;resizable=0;points=[];autosize=1;strokeColor=none;fillColor=none;" vertex="1" parent="15">
                    <mxGeometry y="190" width="130" height="30" as="geometry"/>
                </mxCell>
                <mxCell id="52" value="private camposCompletos: boolean;" style="text;html=1;align=center;verticalAlign=middle;resizable=0;points=[];autosize=1;strokeColor=none;fillColor=none;" vertex="1" parent="15">
                    <mxGeometry y="110" width="210" height="30" as="geometry"/>
                </mxCell>
                <mxCell id="53" value="" style="endArrow=none;html=1;exitX=0.022;exitY=1.065;exitDx=0;exitDy=0;exitPerimeter=0;entryX=0.999;entryY=1.065;entryDx=0;entryDy=0;entryPerimeter=0;" edge="1" parent="15">
                    <mxGeometry width="50" height="50" relative="1" as="geometry">
                        <mxPoint x="-0.1699999999999946" y="179.99999999999983" as="sourcePoint"/>
                        <mxPoint x="204.99999999999997" y="179.99999999999983" as="targetPoint"/>
                    </mxGeometry>
                </mxCell>
                <mxCell id="62" value="public getApellido()" style="text;html=1;align=center;verticalAlign=middle;resizable=0;points=[];autosize=1;strokeColor=none;fillColor=none;" vertex="1" parent="15">
                    <mxGeometry y="220" width="130" height="30" as="geometry"/>
                </mxCell>
                <mxCell id="65" value="public getTelefono()" style="text;html=1;align=center;verticalAlign=middle;resizable=0;points=[];autosize=1;strokeColor=none;fillColor=none;" vertex="1" parent="15">
                    <mxGeometry y="250" width="130" height="30" as="geometry"/>
                </mxCell>
                <mxCell id="66" value="public getCorreo()" style="text;html=1;align=center;verticalAlign=middle;resizable=0;points=[];autosize=1;strokeColor=none;fillColor=none;" vertex="1" parent="15">
                    <mxGeometry x="5" y="280" width="120" height="30" as="geometry"/>
                </mxCell>
                <mxCell id="67" value="public completarDatos()" style="text;html=1;align=center;verticalAlign=middle;resizable=0;points=[];autosize=1;strokeColor=none;fillColor=none;" vertex="1" parent="15">
                    <mxGeometry x="5" y="318" width="150" height="30" as="geometry"/>
                </mxCell>
                <mxCell id="82" value="observaciones: string;" style="text;html=1;align=center;verticalAlign=middle;resizable=0;points=[];autosize=1;strokeColor=none;fillColor=none;" vertex="1" parent="15">
                    <mxGeometry x="15" y="140" width="140" height="30" as="geometry"/>
                </mxCell>
                <mxCell id="22" value="class Formulario" style="swimlane;whiteSpace=wrap;html=1;" vertex="1" parent="1">
                    <mxGeometry x="90" y="60" width="200" height="310" as="geometry"/>
                </mxCell>
                <mxCell id="23" value="private vivienda: Inmueble" style="text;html=1;align=center;verticalAlign=middle;resizable=0;points=[];autosize=1;strokeColor=none;fillColor=none;" vertex="1" parent="22">
                    <mxGeometry x="10" y="35" width="160" height="30" as="geometry"/>
                </mxCell>
                <mxCell id="24" value="private contacto: Contacto" style="text;html=1;align=center;verticalAlign=middle;resizable=0;points=[];autosize=1;strokeColor=none;fillColor=none;" vertex="1" parent="22">
                    <mxGeometry x="10" y="65" width="160" height="30" as="geometry"/>
                </mxCell>
                <mxCell id="45" value="dadoDeAlta: boolean;" style="text;html=1;align=center;verticalAlign=middle;resizable=0;points=[];autosize=1;strokeColor=none;fillColor=none;" vertex="1" parent="22">
                    <mxGeometry x="10" y="95" width="140" height="30" as="geometry"/>
                </mxCell>
                <mxCell id="46" value="public getVivienda()" style="text;html=1;align=center;verticalAlign=middle;resizable=0;points=[];autosize=1;strokeColor=none;fillColor=none;" vertex="1" parent="22">
                    <mxGeometry y="170" width="130" height="30" as="geometry"/>
                </mxCell>
                <mxCell id="48" value="public getContacto()" style="text;html=1;align=center;verticalAlign=middle;resizable=0;points=[];autosize=1;strokeColor=none;fillColor=none;" vertex="1" parent="22">
                    <mxGeometry y="210" width="130" height="30" as="geometry"/>
                </mxCell>
                <mxCell id="49" value="public darDeAlta()" style="text;html=1;align=center;verticalAlign=middle;resizable=0;points=[];autosize=1;strokeColor=none;fillColor=none;" vertex="1" parent="22">
                    <mxGeometry y="250" width="120" height="30" as="geometry"/>
                </mxCell>
                <mxCell id="31" value="class Departamento Extend Inmueble" style="swimlane;whiteSpace=wrap;html=1;" vertex="1" parent="1">
                    <mxGeometry x="500" y="690" width="260" height="200" as="geometry"/>
                </mxCell>
                <mxCell id="32" value="private piso: int;" style="text;html=1;align=center;verticalAlign=middle;resizable=0;points=[];autosize=1;strokeColor=none;fillColor=none;" vertex="1" parent="31">
                    <mxGeometry x="10" y="40" width="110" height="30" as="geometry"/>
                </mxCell>
                <mxCell id="33" value="private letraDpto: string;" style="text;html=1;align=center;verticalAlign=middle;resizable=0;points=[];autosize=1;strokeColor=none;fillColor=none;" vertex="1" parent="31">
                    <mxGeometry x="10" y="70" width="150" height="30" as="geometry"/>
                </mxCell>
                <mxCell id="34" value="private admiteMascota: boolean;" style="text;html=1;align=center;verticalAlign=middle;resizable=0;points=[];autosize=1;strokeColor=none;fillColor=none;" vertex="1" parent="31">
                    <mxGeometry x="10" y="100" width="200" height="30" as="geometry"/>
                </mxCell>
                <mxCell id="37" value="class Casa Extend Inmueble" style="swimlane;whiteSpace=wrap;html=1;" vertex="1" parent="1">
                    <mxGeometry x="890" y="690" width="200" height="120" as="geometry"/>
                </mxCell>
                <mxCell id="38" value="private poseeQuincho: boolean;" style="text;html=1;align=center;verticalAlign=middle;resizable=0;points=[];autosize=1;strokeColor=none;fillColor=none;" vertex="1" parent="37">
                    <mxGeometry y="40" width="190" height="30" as="geometry"/>
                </mxCell>
                <mxCell id="39" value="private poseePileta: boolean;" style="text;html=1;align=center;verticalAlign=middle;resizable=0;points=[];autosize=1;strokeColor=none;fillColor=none;" vertex="1" parent="37">
                    <mxGeometry y="70" width="180" height="30" as="geometry"/>
                </mxCell>
                <mxCell id="50" value="" style="endArrow=none;html=1;entryX=1;entryY=0.5;entryDx=0;entryDy=0;exitX=0;exitY=0.5;exitDx=0;exitDy=0;" edge="1" parent="1" source="22" target="22">
                    <mxGeometry width="50" height="50" relative="1" as="geometry">
                        <mxPoint x="140" y="220" as="sourcePoint"/>
                        <mxPoint x="190" y="170" as="targetPoint"/>
                    </mxGeometry>
                </mxCell>
                <mxCell id="81" value="&lt;span style=&quot;font-family: monospace; font-size: 0px; text-align: start;&quot;&gt;%3CmxGraphModel%3E%3Croot%3E%3CmxCell%20id%3D%220%22%2F%3E%3CmxCell%20id%3D%221%22%20parent%3D%220%22%2F%3E%3CmxCell%20id%3D%222%22%20value%3D%22observaciones%3A%20string%3B%22%20style%3D%22text%3Bhtml%3D1%3Balign%3Dcenter%3BverticalAlign%3Dmiddle%3Bresizable%3D0%3Bpoints%3D%5B%5D%3Bautosize%3D1%3BstrokeColor%3Dnone%3BfillColor%3Dnone%3B%22%20vertex%3D%221%22%20parent%3D%221%22%3E%3CmxGeometry%20x%3D%22100%22%20y%3D%22155%22%20width%3D%22140%22%20height%3D%2230%22%20as%3D%22geometry%22%2F%3E%3C%2FmxCell%3E%3C%2Froot%3E%3C%2FmxGraphModel%3E&lt;/span&gt;" style="text;html=1;align=center;verticalAlign=middle;resizable=0;points=[];autosize=1;strokeColor=none;fillColor=none;" vertex="1" parent="1">
                    <mxGeometry x="380" y="208" width="20" height="30" as="geometry"/>
                </mxCell>
            </root>
        </mxGraphModel>
    </diagram>
</mxfile>